PathFileType	4	(X/Y/Z)	RBDS04static.trc
DataRate	CameraRate	NumFrames	NumMarkers	Units	OrigDataRate	OrigDataStartFrame	OrigNumFrames
150.000000	150.000000	4	48	mm	150.000000	75	150
Frame#	Time	L.Ankle			L.Ankle.Medial			L.ASIS			L.GTR			L.Heel.Bottom			L.Heel.Lateral			L.Heel.Top			L.HF			L.Iliac.Crest			L.Knee			L.Knee.Medial			L.MT1			L.MT2			L.MT5			L.PSIS			L.Shank.Bottom.Lateral			L.Shank.Bottom.Medial			L.Shank.Top.Lateral			L.Shank.Top.Medial			L.Thigh.Bottom.Lateral			L.Thigh.Bottom.Medial			L.Thigh.Top.Lateral			L.Thigh.Top.Medial			L.TT			R.Ankle			R.Ankle.Medial			R.ASIS			R.GTR			R.Heel.Bottom			R.Heel.Lateral			R.Heel.Top			R.HF			R.Iliac.Crest			R.Knee			R.Knee.Medial			R.MT1			R.MT2			R.MT5			R.PSIS			R.Shank.Bottom.Lateral			R.Shank.Bottom.Medial			R.Shank.Top.Lateral			R.Shank.Top.Medial			R.Thigh.Bottom.Lateral			R.Thigh.Bottom.Medial			R.Thigh.Top.Lateral			R.Thigh.Top.Medial			R.TT			
		X1	Y1	Z1	X2	Y2	Z2	X3	Y3	Z3	X4	Y4	Z4	X5	Y5	Z5	X6	Y6	Z6	X7	Y7	Z7	X8	Y8	Z8	X9	Y9	Z9	X10	Y10	Z10	X11	Y11	Z11	X12	Y12	Z12	X13	Y13	Z13	X14	Y14	Z14	X15	Y15	Z15	X16	Y16	Z16	X17	Y17	Z17	X18	Y18	Z18	X19	Y19	Z19	X20	Y20	Z20	X21	Y21	Z21	X22	Y22	Z22	X23	Y23	Z23	X24	Y24	Z24	X25	Y25	Z25	X26	Y26	Z26	X27	Y27	Z27	X28	Y28	Z28	X29	Y29	Z29	X30	Y30	Z30	X31	Y31	Z31	X32	Y32	Z32	X33	Y33	Z33	X34	Y34	Z34	X35	Y35	Z35	X36	Y36	Z36	X37	Y37	Z37	X38	Y38	Z38	X39	Y39	Z39	X40	Y40	Z40	X41	Y41	Z41	X42	Y42	Z42	X43	Y43	Z43	X44	Y44	Z44	X45	Y45	Z45	X46	Y46	Z46	X47	Y47	Z47	X48	Y48	Z48	

76	0.5	694.0968627929688	100.8136749267578	1055.105346679688	715.2454223632813	105.0498962402344	1134.238159179688	837.205810546875	978.0523071289063	1131.713256835938	746.84423828125	896.4822998046875	1063.922241210938	629.673583984375	38.85681533813477	1086.577026367188	662.4320068359375	58.43529510498047	1046.564819335938	638.5811157226563	85.61201477050781	1087.5966796875	700.652099609375	451.3577575683594	1050.360473632813	761.9913330078125	1039.679809570313	1086.314453125	710.930908203125	516.6889038085938	1056.696899414063	703.2642211914063	504.9486999511719	1170.829223632813	842.8209838867188	61.39101409912109	1129.284301757813	841.7584228515625	65.88899230957031	1081.755493164063	816.5248413085938	49.64340209960938	1028.265625	668.5991821289063	1000.773498535156	1188.818603515625	695.823974609375	184.4720306396484	1047.493774414063	652.8272094726563	179.4175567626953	1074.35791015625	686.333740234375	264.2266845703125	1038.470092773438	641.418212890625	263.4430847167969	1067.51220703125	728.3851318359375	632.5096435546875	1043.087280273438	666.1573486328125	634.8156127929688	1081.7724609375	727.0176391601563	743.0648803710938	1041.955200195313	671.127197265625	745.1353149414063	1082.853515625	750.4418334960938	430.5106506347656	1097.859985351563	692.7149047851563	95.82032775878906	1398.898071289063	714.6939697265625	111.0060424804688	1320.488037109375	831.880859375	975.304443359375	1335.540893554688	763.757568359375	893.4989624023438	1400.405517578125	628.427734375	39.16921997070313	1364.795043945313	660.2626953125	56.40816879272461	1405.3193359375	636.0442504882813	84.76516723632813	1364.540771484375	713.3411254882813	450.0795288085938	1415.468627929688	759.034423828125	1029.397094726563	1376.316650390625	711.3394775390625	526.744140625	1405.279052734375	715.498046875	506.806884765625	1291.49365234375	842.0025634765625	63.36289978027344	1332.838500976563	855.7640380859375	64.6585693359375	1375.329956054688	814.1917114257813	53.01271057128906	1430.345458984375	666.6326293945313	1002.293273925781	1274.165161132813	685.8790893554688	179.0760650634766	1409.982055664063	648.817626953125	181.6426086425781	1370.013305664063	676.6951904296875	258.9826049804688	1421.106323242188	642.0721435546875	260.6381225585938	1379.553100585938	720.8071899414063	618.5082397460938	1413.68359375	664.79931640625	618.7515258789063	1362.561767578125	714.2685546875	728.9821166992188	1417.507080078125	663.6112060546875	728.6190185546875	1368.390991210938	762.3851318359375	432.7466735839844	1360.421264648438	
77	0.5066666666666667	694.11474609375	100.8152160644531	1055.110961914063	715.2478637695313	105.039421081543	1134.245971679688	837.2064819335938	978.0419311523438	1131.710205078125	746.84619140625	896.4720458984375	1063.927124023438	629.665283203125	38.85314559936523	1086.579833984375	662.4241333007813	58.43330764770508	1046.55908203125	638.58935546875	85.60383605957031	1087.595703125	700.641845703125	451.353759765625	1050.34765625	762.0048828125	1039.6962890625	1086.313842773438	710.919189453125	516.6937866210938	1056.707763671875	703.2567138671875	504.9541931152344	1170.832763671875	842.8060302734375	61.39038848876953	1129.280517578125	841.772216796875	65.88631439208984	1081.75146484375	816.5316772460938	49.64704132080078	1028.265380859375	668.6094360351563	1000.764343261719	1188.822875976563	695.8211059570313	184.4657745361328	1047.494995117188	652.8232421875	179.4207611083984	1074.354614257813	686.327392578125	264.2279357910156	1038.47314453125	641.414306640625	263.4478454589844	1067.51025390625	728.3867797851563	632.502685546875	1043.088623046875	666.150390625	634.8178100585938	1081.796997070313	727.0230102539063	743.0701293945313	1041.962280273438	671.1263427734375	745.1290893554688	1082.869262695313	750.4609985351563	430.5232238769531	1097.890258789063	692.722900390625	95.81869506835938	1398.902954101563	714.6978759765625	110.9882202148438	1320.498901367188	831.884033203125	975.3095703125	1335.548706054688	763.7655639648438	893.4910888671875	1400.40625	628.4302978515625	39.17953109741211	1364.797485351563	660.2711181640625	56.40475463867188	1405.306396484375	636.041015625	84.76737976074219	1364.538452148438	713.3583984375	450.0906982421875	1415.459106445313	759.0294189453125	1029.398071289063	1376.318115234375	711.3418579101563	526.7394409179688	1405.296264648438	715.5010375976563	506.8215942382813	1291.490478515625	842.0185546875	63.36499404907227	1332.832641601563	855.7757568359375	64.65071868896484	1375.310424804688	814.2052612304688	53.01901626586914	1430.342651367188	666.6315307617188	1002.2958984375	1274.17138671875	685.873291015625	179.0723571777344	1409.982666015625	648.8231201171875	181.6456756591797	1370.0234375	676.7008056640625	258.9927673339844	1421.111083984375	642.0805053710938	260.6410217285156	1379.555297851563	720.818359375	618.5134887695313	1413.692749023438	664.8110961914063	618.7540893554688	1362.573120117188	714.2816162109375	728.9871215820313	1417.510375976563	663.6177978515625	728.6239013671875	1368.39501953125	762.393310546875	432.7548828125	1360.423217773438	
78	0.5133333333333334	694.1024780273438	100.801513671875	1055.099365234375	715.260498046875	105.0554656982422	1134.229125976563	837.214599609375	978.0347290039063	1131.712768554688	746.8558349609375	896.47802734375	1063.9248046875	629.6669921875	38.84706497192383	1086.58154296875	662.4251098632813	58.4315071105957	1046.55810546875	638.5840454101563	85.60813140869141	1087.597412109375	700.6366577148438	451.3645324707031	1050.365600585938	762.01904296875	1039.694213867188	1086.31982421875	710.9208984375	516.6966552734375	1056.71875	703.2595825195313	504.9565124511719	1170.838012695313	842.8031616210938	61.38349533081055	1129.279174804688	841.7571411132813	65.88271331787109	1081.746459960938	816.5293579101563	49.64056396484375	1028.261108398438	668.6209106445313	1000.761474609375	1188.8251953125	695.8242797851563	184.4703521728516	1047.503295898438	652.8221435546875	179.4134979248047	1074.354614257813	686.3265991210938	264.2325134277344	1038.47607421875	641.4053955078125	263.4466247558594	1067.512817382813	728.3822021484375	632.5047607421875	1043.093627929688	666.1454467773438	634.8272705078125	1081.809936523438	727.0131225585938	743.0697021484375	1041.97119140625	671.1287841796875	745.1279296875	1082.881225585938	750.4459228515625	430.5143127441406	1097.874145507813	692.7295532226563	95.81280517578125	1398.89111328125	714.699462890625	110.9931945800781	1320.498657226563	831.894287109375	975.3128662109375	1335.547729492188	763.77294921875	893.5045776367188	1400.41845703125	628.43359375	39.16262817382813	1364.7841796875	660.2649536132813	56.39820861816406	1405.314453125	636.0396728515625	84.76920318603516	1364.53662109375	713.3594360351563	450.0790710449219	1415.465454101563	759.0344848632813	1029.404907226563	1376.326049804688	711.35302734375	526.74169921875	1405.28955078125	715.5009155273438	506.83203125	1291.49169921875	842.0142822265625	63.36322784423828	1332.834716796875	855.7662353515625	64.65374755859375	1375.32177734375	814.1963500976563	53.0141487121582	1430.344482421875	666.64306640625	1002.29150390625	1274.165649414063	685.8853149414063	179.0650787353516	1409.974243164063	648.8185424804688	181.6403656005859	1370.017578125	676.703857421875	258.9900207519531	1421.101196289063	642.0765991210938	260.6475830078125	1379.553466796875	720.829833984375	618.50830078125	1413.699096679688	664.82080078125	618.7584228515625	1362.5712890625	714.2945556640625	728.9856567382813	1417.520141601563	663.6282958984375	728.6264038085938	1368.4072265625	762.412109375	432.7671508789063	1360.426513671875	
79	0.52	694.0921020507813	100.8053512573242	1055.11279296875	715.2490234375	105.0454177856445	1134.232055664063	837.2240600585938	978.047119140625	1131.714477539063	746.8470458984375	896.4656372070313	1063.92236328125	629.6704711914063	38.84867858886719	1086.585693359375	662.4287109375	58.43280410766602	1046.560546875	638.5867919921875	85.60082244873047	1087.596923828125	700.6395263671875	451.3562316894531	1050.37158203125	762.02783203125	1039.692749023438	1086.322143554688	710.9219970703125	516.6891479492188	1056.720336914063	703.264892578125	504.9565124511719	1170.838989257813	842.807861328125	61.38216400146484	1129.27197265625	841.752685546875	65.89151000976563	1081.748413085938	816.5272827148438	49.64111709594727	1028.260375976563	668.6102905273438	1000.76220703125	1188.830932617188	695.810791015625	184.4716186523438	1047.496337890625	652.8175048828125	179.4162750244141	1074.354370117188	686.3231811523438	264.220703125	1038.480346679688	641.4054565429688	263.4442138671875	1067.518798828125	728.38720703125	632.5001831054688	1043.089111328125	666.1468505859375	634.8214721679688	1081.79833984375	727.0105590820313	743.0582885742188	1041.974975585938	671.1201782226563	745.1270141601563	1082.879760742188	750.4510498046875	430.5236511230469	1097.869140625	692.7237548828125	95.82154083251953	1398.893920898438	714.7073974609375	111.0005874633789	1320.503173828125	831.8997802734375	975.31640625	1335.547119140625	763.780517578125	893.4970092773438	1400.413330078125	628.4273681640625	39.16818618774414	1364.788208007813	660.2660522460938	56.39780807495117	1405.317138671875	636.037353515625	84.76827239990234	1364.53857421875	713.3660888671875	450.0715942382813	1415.475708007813	759.0376586914063	1029.405639648438	1376.3251953125	711.3651733398438	526.7427368164063	1405.292114257813	715.52685546875	506.8388366699219	1291.50244140625	842.00830078125	63.3582878112793	1332.834350585938	855.7665405273438	64.65084838867188	1375.324340820313	814.1964111328125	53.01997756958008	1430.342529296875	666.6392822265625	1002.293884277344	1274.172607421875	685.885009765625	179.0732421875	1409.971801757813	648.8292846679688	181.6476287841797	1370.028686523438	676.7086181640625	258.9971923828125	1421.106079101563	642.0833740234375	260.6466369628906	1379.556396484375	720.8406372070313	618.5097045898438	1413.705932617188	664.8280639648438	618.748291015625	1362.583984375	714.30419921875	728.9871215820313	1417.523559570313	663.6386108398438	728.62548828125	1368.409790039063	762.409423828125	432.7681579589844	1360.432739257813	
